<svg width="0" height="0" class="hidden">
    <symbol width="53" height="55" viewBox="0 0 53 55" fill="none" id="humidity" xmlns="http://www.w3.org/2000/svg">
        <ellipse cx="26.2338" cy="27.5" rx="26.2338" ry="27.5" fill="white"/>
        <path d="M38.9429 27.5972C38.9429 32.145 35.8299 35.5744 32.2829 35.5744C28.736 35.5744 25.623 32.145 25.623 27.5972C25.623 25.3613 26.5298 22.7467 27.9158 20.4322C29.1872 18.309 30.7884 16.5602 32.2876 15.6297C34.0499 16.682 35.6646 18.4493 36.8696 20.5384C38.1698 22.7923 38.9429 25.3346 38.9429 27.5972Z"
              stroke="#519157" stroke-width="1.81634"/>
        <path fill-rule="evenodd" clip-rule="evenodd"
              d="M30.0855 34.7566C28.7479 38.5128 25.6229 40.9624 22.2926 40.9624C17.8737 40.9624 13.8163 36.6496 13.8163 30.6946C13.8163 27.7932 15.0002 24.3411 16.8519 21.2488C18.4669 18.5518 20.4573 16.3487 22.306 15.1063C24.4804 16.4933 26.4952 18.7295 28.027 21.3851C28.063 21.4474 28.0987 21.51 28.134 21.5727L28.6651 19.6418L29.1961 19.8023C27.3817 16.8817 24.9704 14.4035 22.2926 13C17.3522 15.5895 12 24.0207 12 30.6946C12 37.3685 16.6082 42.7788 22.2926 42.7788C26.5945 42.7788 30.28 39.6802 31.8182 35.2803L30.0855 34.7566Z"
              fill="#519157"/>
    </symbol>
    <symbol width="53" height="55" viewBox="0 0 53 55" fill="none" id="lighting" xmlns="http://www.w3.org/2000/svg">
        <path fill-rule="evenodd" clip-rule="evenodd"
              d="M37.4048 28.1161C37.0958 21.732 32.0783 16.7854 26.0972 16.7854C20.116 16.7854 15.0985 21.732 14.7896 28.1161H13C13.3116 20.8158 19.0562 14.9976 26.0972 14.9976C33.1381 14.9976 38.8828 20.8158 39.1943 28.1161H37.4048Z"
              fill="#519157"/>
        <path d="M26.1104 10V15.3099" stroke="#519157" stroke-width="2.38372" stroke-linecap="round"/>
        <path d="M26.1104 39.3608V44.3584" stroke="#519157" stroke-width="2.38372" stroke-linecap="round"/>
        <path d="M32.0693 36.8618L35.4404 40.3956" stroke="#519157" stroke-width="2.38372" stroke-linecap="round"/>
        <path d="M16.5752 40.3955L19.9463 36.8617" stroke="#519157" stroke-width="2.38372" stroke-linecap="round"/>
        <path fill-rule="evenodd" clip-rule="evenodd"
              d="M19.6181 28.1162C19.5763 28.4223 19.5547 28.7351 19.5547 29.0533C19.5547 32.6758 22.3562 35.6125 25.812 35.6125C29.2678 35.6125 32.0692 32.6758 32.0692 29.0533C32.0692 28.7351 32.0476 28.4223 32.0059 28.1162H30.1965C30.2521 28.4177 30.2814 28.7308 30.2814 29.0533C30.2814 31.7688 28.2019 33.8248 25.812 33.8248C23.422 33.8248 21.3425 31.7688 21.3425 29.0533C21.3425 28.7308 21.3718 28.4177 21.4275 28.1162H19.6181Z"
              fill="#519157"/>
        <path d="M13.8436 28.4287H38.3662" stroke="#519157" stroke-width="1.78779" stroke-linecap="round"/>
    </symbol>
    <symbol width="53" height="55" viewBox="0 0 53 55" fill="none" id="temperature" xmlns="http://www.w3.org/2000/svg">
        <ellipse cx="26.2338" cy="27.5" rx="26.2338" ry="27.5" fill="white"/>
        <path d="M29.9051 37.9016C29.9051 40.0783 28.2219 41.8428 26.1454 41.8428C24.069 41.8428 22.3857 40.0783 22.3857 37.9016C22.3857 35.725 24.069 33.9604 26.1454 33.9604C28.2219 33.9604 29.9051 35.725 29.9051 37.9016Z"
              fill="#519157"/>
        <path fill-rule="evenodd" clip-rule="evenodd"
              d="M29.2788 31.3332V14.0129C29.2788 12.2826 27.8761 10.8798 26.1457 10.8798C24.4154 10.8798 23.0127 12.2826 23.0127 14.0129V31.3332H21.1328V14.0129C21.1328 11.2444 23.3772 9 26.1457 9C28.9143 9 31.1587 11.2444 31.1587 14.0129V31.3332H29.2788ZM31.1587 38.5586H21.1328V38.5587H23.0127H29.2788H31.1587V38.5586Z"
              fill="#519157"/>
        <path fill-rule="evenodd" clip-rule="evenodd"
              d="M23.0128 29.3795C20.0691 30.7041 18 33.8389 18 37.4951C18 42.3493 21.6471 46.2843 26.146 46.2843C30.6449 46.2843 34.292 42.3493 34.292 37.4951C34.292 33.8388 32.2228 30.7039 29.2789 29.3794V31.5169C31.1202 32.6902 32.4121 34.8734 32.4121 37.4951C32.4121 41.4481 29.4747 44.4045 26.146 44.4045C22.8173 44.4045 19.8798 41.4481 19.8798 37.4951C19.8798 34.8736 21.1717 32.6904 23.0128 31.5171V29.3795Z"
              fill="#519157"/>
    </symbol>
    <symbol width="17" height="15" viewBox="0 0 17 15" fill="none" id="heart" xmlns="http://www.w3.org/2000/svg">
        <path d="M8.5 14.6814C8.2693 14.6814 8.04605 14.6516 7.86 14.5846C5.01721 13.6098 0.5 10.1493 0.5 5.03674C0.5 2.43209 2.60605 0.318604 5.19581 0.318604C6.45349 0.318604 7.6293 0.809766 8.5 1.68791C9.3707 0.809766 10.5465 0.318604 11.8042 0.318604C14.394 0.318604 16.5 2.43953 16.5 5.03674C16.5 10.1567 11.9828 13.6098 9.14 14.5846C8.95395 14.6516 8.7307 14.6814 8.5 14.6814ZM5.19581 1.43488C3.22372 1.43488 1.61628 3.04977 1.61628 5.03674C1.61628 10.1195 6.50558 12.9474 8.22465 13.5353C8.3586 13.58 8.64884 13.58 8.78279 13.5353C10.4944 12.9474 15.3912 10.127 15.3912 5.03674C15.3912 3.04977 13.7837 1.43488 11.8116 1.43488C10.6805 1.43488 9.63116 1.96325 8.95395 2.8786C8.74558 3.16139 8.2693 3.16139 8.06093 2.8786C7.36884 1.95581 6.32698 1.43488 5.19581 1.43488Z"
              fill="#6CAC72"/>
    </symbol>
    <symbol width="17" height="15" viewBox="0 0 17 15" fill="none" id="heart-hovered" xmlns="http://www.w3.org/2000/svg">
        <path d="M8.5 14.6814C8.2693 14.6814 8.04605 14.6516 7.86 14.5846C5.01721 13.6098 0.5 10.1493 0.5 5.03674C0.5 2.43209 2.60605 0.318604 5.19581 0.318604C6.45349 0.318604 7.6293 0.809766 8.5 1.68791C9.3707 0.809766 10.5465 0.318604 11.8042 0.318604C14.394 0.318604 16.5 2.43953 16.5 5.03674C16.5 10.1567 11.9828 13.6098 9.14 14.5846C8.95395 14.6516 8.7307 14.6814 8.5 14.6814ZM5.19581 1.43488C3.22372 1.43488 1.61628 3.04977 1.61628 5.03674C1.61628 10.1195 6.50558 12.9474 8.22465 13.5353C8.3586 13.58 8.64884 13.58 8.78279 13.5353C10.4944 12.9474 15.3912 10.127 15.3912 5.03674C15.3912 3.04977 13.7837 1.43488 11.8116 1.43488C10.6805 1.43488 9.63116 1.96325 8.95395 2.8786C8.74558 3.16139 8.2693 3.16139 8.06093 2.8786C7.36884 1.95581 6.32698 1.43488 5.19581 1.43488Z"
              fill="#FFFFFF"/>
    </symbol>
    <symbol width="16" height="15" viewBox="0 0 16 15" fill="none" id="heart-filled" xmlns="http://www.w3.org/2000/svg">
        <path d="M8 14.3628C7.7693 14.3628 7.54605 14.333 7.36 14.266C4.51721 13.2912 0 9.8307 0 4.71814C0 2.11349 2.10605 0 4.69581 0C5.95349 0 7.1293 0.491163 8 1.3693C8.8707 0.491163 10.0465 0 11.3042 0C13.894 0 16 2.12093 16 4.71814C16 9.83814 11.4828 13.2912 8.64 14.266C8.45395 14.333 8.2307 14.3628 8 14.3628Z"
              fill="#6CAC72"/>
    </symbol>
    <symbol width="16" height="15" viewBox="0 0 16 15" fill="none" id="heart-filled-hovered" xmlns="http://www.w3.org/2000/svg">
        <path d="M8 14.3628C7.7693 14.3628 7.54605 14.333 7.36 14.266C4.51721 13.2912 0 9.8307 0 4.71814C0 2.11349 2.10605 0 4.69581 0C5.95349 0 7.1293 0.491163 8 1.3693C8.8707 0.491163 10.0465 0 11.3042 0C13.894 0 16 2.12093 16 4.71814C16 9.83814 11.4828 13.2912 8.64 14.266C8.45395 14.333 8.2307 14.3628 8 14.3628Z"
              fill="#FFFFFF"/>
    </symbol>
    <symbol width="16" height="17" viewBox="0 0 16 17" fill="none" id="close-cross" xmlns="http://www.w3.org/2000/svg">
        <g clip-path="url(#clip0_858_553)">
            <line x1="1.93562" y1="3.1499" x2="13.9564" y2="15.1707" stroke="#A8ABA7" stroke-linecap="round"/>
            <line x1="13.9238" y1="3.12996" x2="1.90301" y2="15.1508" stroke="#A8ABA7" stroke-linecap="round"/>
        </g>
    </symbol>
    <symbol width="16" height="17" viewBox="0 0 16 17" fill="none" id="close-cross-hovered"
            xmlns="http://www.w3.org/2000/svg">
        <g clip-path="url(#clip0_858_553)">
            <line x1="1.93562" y1="3.1499" x2="13.9564" y2="15.1707" stroke="#519057" stroke-linecap="round"/>
            <line x1="13.9238" y1="3.12996" x2="1.90301" y2="15.1508" stroke="#519057" stroke-linecap="round"/>
        </g>
    </symbol>
    <symbol width="20" height="21" viewBox="0 0 20 21" fill="none" id="list" xmlns="http://www.w3.org/2000/svg">
        <path d="M10.0003 14.5C9.41693 14.5 8.83359 14.275 8.39193 13.8334L2.95859 8.40003C2.71693 8.15837 2.71693 7.75837 2.95859 7.5167C3.20026 7.27503 3.60026 7.27503 3.84193 7.5167L9.27526 12.95C9.67526 13.35 10.3253 13.35 10.7253 12.95L16.1586 7.5167C16.4003 7.27503 16.8003 7.27503 17.0419 7.5167C17.2836 7.75837 17.2836 8.15837 17.0419 8.40003L11.6086 13.8334C11.1669 14.275 10.5836 14.5 10.0003 14.5Z"
              fill="#2C2C2C"/>
    </symbol>
    <symbol width="24" height="25" viewBox="0 0 24 25" fill="none" id="arrow-backward"
            xmlns="http://www.w3.org/2000/svg">
        <path d="M9.56988 5.98092C9.75988 5.98092 9.94988 6.04973 10.0999 6.19717C10.3899 6.48223 10.3899 6.95405 10.0999 7.2391L4.55988 12.6847L10.0999 18.1303C10.3899 18.4153 10.3899 18.8871 10.0999 19.1722C9.80988 19.4573 9.32988 19.4573 9.03988 19.1722L2.96988 13.2056C2.67988 12.9206 2.67988 12.4488 2.96988 12.1637L9.03988 6.19717C9.18988 6.04973 9.37988 5.98092 9.56988 5.98092Z"
              fill="#2C2C2C"/>
        <path d="M3.67 11.9474L20.5 11.9474C20.91 11.9474 21.25 12.2816 21.25 12.6847C21.25 13.0877 20.91 13.4219 20.5 13.4219L3.67 13.4219C3.26 13.4219 2.92 13.0877 2.92 12.6847C2.92 12.2816 3.26 11.9474 3.67 11.9474Z"
              fill="#2C2C2C"/>
    </symbol>
    <symbol width="24" height="25" viewBox="0 0 24 25" fill="none" id="arrow-forward"
            xmlns="http://www.w3.org/2000/svg">
        <path d="M14.4301 19.3885C14.2401 19.3885 14.0501 19.3197 13.9001 19.1722C13.6101 18.8872 13.6101 18.4153 13.9001 18.1303L19.4401 12.6847L13.9001 7.23913C13.6101 6.95407 13.6101 6.48225 13.9001 6.19719C14.1901 5.91213 14.6701 5.91213 14.9601 6.19719L21.0301 12.1637C21.3201 12.4488 21.3201 12.9206 21.0301 13.2057L14.9601 19.1722C14.8101 19.3197 14.6201 19.3885 14.4301 19.3885Z"
              fill="#2C2C2C"/>
        <path d="M20.33 13.4219H3.5C3.09 13.4219 2.75 13.0877 2.75 12.6847C2.75 12.2817 3.09 11.9475 3.5 11.9475H20.33C20.74 11.9475 21.08 12.2817 21.08 12.6847C21.08 13.0877 20.74 13.4219 20.33 13.4219Z"
              fill="#2C2C2C"/>
    </symbol>
    <symbol width="16" height="8" viewBox="0 0 16 8" fill="none" id="list-short" xmlns="http://www.w3.org/2000/svg">
        <path d="M8.00026 8.00003C7.41693 8.00003 6.83359 7.77503 6.39193 7.33337L0.958594 1.90003C0.716927 1.65837 0.716927 1.25837 0.958594 1.0167C1.20026 0.775033 1.60026 0.775033 1.84193 1.0167L7.27526 6.45003C7.67526 6.85003 8.32526 6.85003 8.72526 6.45003L14.1586 1.0167C14.4003 0.775033 14.8003 0.775033 15.0419 1.0167C15.2836 1.25837 15.2836 1.65837 15.0419 1.90003L9.60859 7.33337C9.16693 7.77503 8.58359 8.00003 8.00026 8.00003Z"
              fill="#2C2C2C"/>
    </symbol>
    <symbol width="10" height="3" viewBox="0 0 10 3" fill="none" id="minus" xmlns="http://www.w3.org/2000/svg">
        <path d="M9.14019 3V0H0V3H9.14019Z" fill="#9AA89B"/>
    </symbol>
    <symbol width="10" height="3" viewBox="0 0 10 3" fill="none" id="minus-hovered" xmlns="http://www.w3.org/2000/svg">
        <path d="M9.14019 3V0H0V3H9.14019Z" fill="#519057"/>
    </symbol>
    <symbol width="13" height="12" viewBox="0 0 13 12" fill="none" id="plus" xmlns="http://www.w3.org/2000/svg">
        <path d="M7.34934 12V7.20896H12.1406V4.81343H7.34934V0H4.95369V4.81343H0.140625V7.20896H4.95369V12H7.34934Z"
              fill="#9AA89B"/>
    </symbol>
    <symbol width="13" height="12" viewBox="0 0 13 12" fill="none" id="plus-hovered" xmlns="http://www.w3.org/2000/svg">
        <path d="M7.34934 12V7.20896H12.1406V4.81343H7.34934V0H4.95369V4.81343H0.140625V7.20896H4.95369V12H7.34934Z"
              fill="#519057"/>
    </symbol>
    <symbol width="24" height="24" viewBox="0 0 24 24" fill="none" id="vk" xmlns="http://www.w3.org/2000/svg">
        <path d="M6.81152 3.74976C5.12988 3.74976 3.75 5.12964 3.75 6.81128V17.1882C3.75 18.8699 5.12988 20.2498 6.81152 20.2498H17.1885C18.8701 20.2498 20.25 18.8699 20.25 17.1882V6.81128C20.25 5.12964 18.8701 3.74976 17.1885 3.74976H6.81152ZM6.81152 5.24976H17.1885C18.0586 5.24976 18.75 5.94116 18.75 6.81128V17.1882C18.75 18.0583 18.0586 18.7498 17.1885 18.7498H6.81152C5.94141 18.7498 5.25 18.0583 5.25 17.1882V6.81128C5.25 5.94116 5.94141 5.24976 6.81152 5.24976ZM11.7891 9.17261C11.2383 9.16675 10.7695 9.17261 10.5059 9.30151C10.3301 9.38647 10.1953 9.57983 10.2773 9.58862C10.3799 9.60327 10.6113 9.65308 10.7344 9.82007C10.8926 10.0339 10.8867 10.5173 10.8867 10.5173C10.8867 10.5173 10.9746 11.8474 10.6729 12.0144C10.4648 12.1287 10.1807 11.8972 9.56543 10.8396C9.25195 10.2947 9.01465 9.69409 9.01465 9.69409C9.01465 9.69409 8.9707 9.58276 8.88867 9.52417C8.78906 9.45093 8.65137 9.42749 8.65137 9.42749L7.18359 9.43628C7.18359 9.43628 6.96387 9.44507 6.88477 9.53882C6.81152 9.62671 6.87891 9.79956 6.87891 9.79956C6.87891 9.79956 8.02734 12.4861 9.32812 13.8396C10.5205 15.0818 11.874 14.9998 11.874 14.9998H12.4893C12.4893 14.9998 12.6738 14.9792 12.7676 14.8796C12.8555 14.7859 12.8525 14.6101 12.8525 14.6101C12.8525 14.6101 12.8408 13.7869 13.2217 13.6638C13.5996 13.5466 14.0801 14.4607 14.5928 14.8123C14.9824 15.0789 15.2783 15.0203 15.2783 15.0203L16.6494 14.9998C16.6494 14.9998 17.3643 14.9558 17.0244 14.3904C16.998 14.3464 16.8281 13.9744 16.0078 13.2126C15.1465 12.4158 15.2607 12.5447 16.2979 11.1648C16.9277 10.324 17.1797 9.81128 17.1006 9.58862C17.0244 9.38062 16.5615 9.43628 16.5615 9.43628L15.0176 9.44507C15.0176 9.44507 14.9033 9.43042 14.8184 9.48022C14.7363 9.53003 14.6836 9.64722 14.6836 9.64722C14.6836 9.64722 14.4375 10.2976 14.1123 10.8513C13.4268 12.0173 13.1484 12.0818 13.0371 12.0085C12.7764 11.8386 12.8408 11.3289 12.8408 10.9685C12.8408 9.83472 13.0137 9.36597 12.5068 9.24292C12.3398 9.2019 12.2168 9.17554 11.7891 9.17261Z"
              fill="#2C2C2C"/>
    </symbol>
    <symbol width="24" height="24" viewBox="0 0 24 24" fill="none" id="vk-hovered" xmlns="http://www.w3.org/2000/svg">
        <path d="M6.81152 3.74976C5.12988 3.74976 3.75 5.12964 3.75 6.81128V17.1882C3.75 18.8699 5.12988 20.2498 6.81152 20.2498H17.1885C18.8701 20.2498 20.25 18.8699 20.25 17.1882V6.81128C20.25 5.12964 18.8701 3.74976 17.1885 3.74976H6.81152ZM6.81152 5.24976H17.1885C18.0586 5.24976 18.75 5.94116 18.75 6.81128V17.1882C18.75 18.0583 18.0586 18.7498 17.1885 18.7498H6.81152C5.94141 18.7498 5.25 18.0583 5.25 17.1882V6.81128C5.25 5.94116 5.94141 5.24976 6.81152 5.24976ZM11.7891 9.17261C11.2383 9.16675 10.7695 9.17261 10.5059 9.30151C10.3301 9.38647 10.1953 9.57983 10.2773 9.58862C10.3799 9.60327 10.6113 9.65308 10.7344 9.82007C10.8926 10.0339 10.8867 10.5173 10.8867 10.5173C10.8867 10.5173 10.9746 11.8474 10.6729 12.0144C10.4648 12.1287 10.1807 11.8972 9.56543 10.8396C9.25195 10.2947 9.01465 9.69409 9.01465 9.69409C9.01465 9.69409 8.9707 9.58276 8.88867 9.52417C8.78906 9.45093 8.65137 9.42749 8.65137 9.42749L7.18359 9.43628C7.18359 9.43628 6.96387 9.44507 6.88477 9.53882C6.81152 9.62671 6.87891 9.79956 6.87891 9.79956C6.87891 9.79956 8.02734 12.4861 9.32812 13.8396C10.5205 15.0818 11.874 14.9998 11.874 14.9998H12.4893C12.4893 14.9998 12.6738 14.9792 12.7676 14.8796C12.8555 14.7859 12.8525 14.6101 12.8525 14.6101C12.8525 14.6101 12.8408 13.7869 13.2217 13.6638C13.5996 13.5466 14.0801 14.4607 14.5928 14.8123C14.9824 15.0789 15.2783 15.0203 15.2783 15.0203L16.6494 14.9998C16.6494 14.9998 17.3643 14.9558 17.0244 14.3904C16.998 14.3464 16.8281 13.9744 16.0078 13.2126C15.1465 12.4158 15.2607 12.5447 16.2979 11.1648C16.9277 10.324 17.1797 9.81128 17.1006 9.58862C17.0244 9.38062 16.5615 9.43628 16.5615 9.43628L15.0176 9.44507C15.0176 9.44507 14.9033 9.43042 14.8184 9.48022C14.7363 9.53003 14.6836 9.64722 14.6836 9.64722C14.6836 9.64722 14.4375 10.2976 14.1123 10.8513C13.4268 12.0173 13.1484 12.0818 13.0371 12.0085C12.7764 11.8386 12.8408 11.3289 12.8408 10.9685C12.8408 9.83472 13.0137 9.36597 12.5068 9.24292C12.3398 9.2019 12.2168 9.17554 11.7891 9.17261Z"
              fill="#000000"/>
    </symbol>
    <symbol width="24" height="24" viewBox="0 0 24 24" fill="none" id="fb" xmlns="http://www.w3.org/2000/svg">
        <path d="M12 3.00031C7.03832 3.00031 3 7.03863 3 12.0003C3 16.962 7.03832 21.0003 12 21.0003C16.9617 21.0003 21 16.962 21 12.0003C21 7.03863 16.9617 3.00031 12 3.00031ZM12 4.50031C16.151 4.50031 19.5 7.84929 19.5 12.0003C19.5 15.7708 16.7338 18.8713 13.1162 19.4095V14.1873H15.252L15.5874 12.0179H13.1162V10.8328C13.1162 9.93207 13.4121 9.13214 14.2544 9.13214H15.6079V7.23956C15.3702 7.20731 14.867 7.13702 13.916 7.13702C11.93 7.13702 10.7666 8.18551 10.7666 10.575V12.0179H8.72461V14.1873H10.7666V19.3904C7.20664 18.8033 4.5 15.7301 4.5 12.0003C4.5 7.84929 7.84898 4.50031 12 4.50031Z"
              fill="#2C2C2C"/>
    </symbol>
    <symbol width="24" height="24" viewBox="0 0 24 24" fill="none" id="fb-hovered" xmlns="http://www.w3.org/2000/svg">
        <path d="M12 3.00031C7.03832 3.00031 3 7.03863 3 12.0003C3 16.962 7.03832 21.0003 12 21.0003C16.9617 21.0003 21 16.962 21 12.0003C21 7.03863 16.9617 3.00031 12 3.00031ZM12 4.50031C16.151 4.50031 19.5 7.84929 19.5 12.0003C19.5 15.7708 16.7338 18.8713 13.1162 19.4095V14.1873H15.252L15.5874 12.0179H13.1162V10.8328C13.1162 9.93207 13.4121 9.13214 14.2544 9.13214H15.6079V7.23956C15.3702 7.20731 14.867 7.13702 13.916 7.13702C11.93 7.13702 10.7666 8.18551 10.7666 10.575V12.0179H8.72461V14.1873H10.7666V19.3904C7.20664 18.8033 4.5 15.7301 4.5 12.0003C4.5 7.84929 7.84898 4.50031 12 4.50031Z"
              fill="#000000"/>
    </symbol>
    <symbol width="24" height="24" viewBox="0 0 24 24" fill="none" id="instagram" xmlns="http://www.w3.org/2000/svg">
        <path d="M8.60156 3.74976C5.93848 3.74976 3.75 5.9353 3.75 8.60132V15.3982C3.75 18.0613 5.93555 20.2498 8.60156 20.2498H15.3984C18.0615 20.2498 20.25 18.0642 20.25 15.3982V8.60132C20.25 5.93823 18.0645 3.74976 15.3984 3.74976H8.60156ZM8.60156 5.24976H15.3984C17.2529 5.24976 18.75 6.74683 18.75 8.60132V15.3982C18.75 17.2527 17.2529 18.7498 15.3984 18.7498H8.60156C6.74707 18.7498 5.25 17.2527 5.25 15.3982V8.60132C5.25 6.74683 6.74707 5.24976 8.60156 5.24976ZM16.4297 6.89038C16.0518 6.89038 15.75 7.19214 15.75 7.57007C15.75 7.948 16.0518 8.24976 16.4297 8.24976C16.8076 8.24976 17.1094 7.948 17.1094 7.57007C17.1094 7.19214 16.8076 6.89038 16.4297 6.89038ZM12 7.49976C9.52441 7.49976 7.5 9.52417 7.5 11.9998C7.5 14.4753 9.52441 16.4998 12 16.4998C14.4756 16.4998 16.5 14.4753 16.5 11.9998C16.5 9.52417 14.4756 7.49976 12 7.49976ZM12 8.99976C13.667 8.99976 15 10.3328 15 11.9998C15 13.6667 13.667 14.9998 12 14.9998C10.333 14.9998 9 13.6667 9 11.9998C9 10.3328 10.333 8.99976 12 8.99976Z"
              fill="#2C2C2C"/>
    </symbol>
    <symbol width="24" height="24" viewBox="0 0 24 24" fill="none" id="instagram-hovered"
            xmlns="http://www.w3.org/2000/svg">
        <path d="M8.60156 3.74976C5.93848 3.74976 3.75 5.9353 3.75 8.60132V15.3982C3.75 18.0613 5.93555 20.2498 8.60156 20.2498H15.3984C18.0615 20.2498 20.25 18.0642 20.25 15.3982V8.60132C20.25 5.93823 18.0645 3.74976 15.3984 3.74976H8.60156ZM8.60156 5.24976H15.3984C17.2529 5.24976 18.75 6.74683 18.75 8.60132V15.3982C18.75 17.2527 17.2529 18.7498 15.3984 18.7498H8.60156C6.74707 18.7498 5.25 17.2527 5.25 15.3982V8.60132C5.25 6.74683 6.74707 5.24976 8.60156 5.24976ZM16.4297 6.89038C16.0518 6.89038 15.75 7.19214 15.75 7.57007C15.75 7.948 16.0518 8.24976 16.4297 8.24976C16.8076 8.24976 17.1094 7.948 17.1094 7.57007C17.1094 7.19214 16.8076 6.89038 16.4297 6.89038ZM12 7.49976C9.52441 7.49976 7.5 9.52417 7.5 11.9998C7.5 14.4753 9.52441 16.4998 12 16.4998C14.4756 16.4998 16.5 14.4753 16.5 11.9998C16.5 9.52417 14.4756 7.49976 12 7.49976ZM12 8.99976C13.667 8.99976 15 10.3328 15 11.9998C15 13.6667 13.667 14.9998 12 14.9998C10.333 14.9998 9 13.6667 9 11.9998C9 10.3328 10.333 8.99976 12 8.99976Z"
              fill="#000000"/>
    </symbol>
    <symbol width="16" height="16" viewBox="0 0 16 16" fill="none" id="swiper-backward"
            xmlns="http://www.w3.org/2000/svg">
        <path d="M10.5561 15C10.4013 15 10.2465 14.9435 10.1243 14.8224L4.8127 9.55746C3.94915 8.70151 3.94915 7.29647 4.8127 6.44052L10.1243 1.17563C10.3606 0.941456 10.7516 0.941456 10.9879 1.17563C11.2241 1.40981 11.2241 1.7974 10.9879 2.03158L5.67624 7.29647C5.2852 7.68407 5.2852 8.31392 5.67624 8.70151L10.9879 13.9664C11.2241 14.2006 11.2241 14.5882 10.9879 14.8224C10.8657 14.9354 10.7109 15 10.5561 15Z"
              fill="#202B21"/>
    </symbol>
    <symbol width="16" height="16" viewBox="0 0 16 16" fill="none" id="swiper-backward-gray"
            xmlns="http://www.w3.org/2000/svg">
        <path d="M10.5561 15C10.4013 15 10.2465 14.9435 10.1243 14.8224L4.8127 9.55746C3.94915 8.70151 3.94915 7.29647 4.8127 6.44052L10.1243 1.17563C10.3606 0.941456 10.7516 0.941456 10.9879 1.17563C11.2241 1.40981 11.2241 1.7974 10.9879 2.03158L5.67624 7.29647C5.2852 7.68407 5.2852 8.31392 5.67624 8.70151L10.9879 13.9664C11.2241 14.2006 11.2241 14.5882 10.9879 14.8224C10.8657 14.9354 10.7109 15 10.5561 15Z"
              fill="#8E8E8E"/>
    </symbol>
    <symbol width="16" height="16" viewBox="0 0 16 16" fill="none" id="swiper-forward"
            xmlns="http://www.w3.org/2000/svg">
        <path d="M5.44392 1C5.59871 1 5.75349 1.05652 5.87569 1.17765L11.1873 6.44254C12.0508 7.29849 12.0508 8.70353 11.1873 9.55948L5.87569 14.8244C5.63944 15.0585 5.2484 15.0585 5.01215 14.8244C4.7759 14.5902 4.7759 14.2026 5.01215 13.9684L10.3238 8.70353C10.7148 8.31593 10.7148 7.68608 10.3238 7.29849L5.01215 2.0336C4.7759 1.79942 4.7759 1.41182 5.01215 1.17765C5.13435 1.0646 5.28914 1 5.44392 1Z"
              fill="#202B21"/>
    </symbol>
    <symbol width="16" height="16" viewBox="0 0 16 16" fill="none" id="swiper-forward-gray"
            xmlns="http://www.w3.org/2000/svg">
        <path d="M5.44392 1C5.59871 1 5.75349 1.05652 5.87569 1.17765L11.1873 6.44254C12.0508 7.29849 12.0508 8.70353 11.1873 9.55948L5.87569 14.8244C5.63944 15.0585 5.2484 15.0585 5.01215 14.8244C4.7759 14.5902 4.7759 14.2026 5.01215 13.9684L10.3238 8.70353C10.7148 8.31593 10.7148 7.68608 10.3238 7.29849L5.01215 2.0336C4.7759 1.79942 4.7759 1.41182 5.01215 1.17765C5.13435 1.0646 5.28914 1 5.44392 1Z"
              fill="#8E8E8E"/>
    </symbol>
    <symbol width="18" height="4" viewBox="0 0 18 4" fill="none" id="dots" xmlns="http://www.w3.org/2000/svg">
        <circle cx="2.66699" cy="2" r="2" fill="#9AA89B"/>
        <circle cx="9.33398" cy="2" r="2" fill="#9AA89B"/>
        <circle cx="16" cy="2" r="2" fill="#9AA89B"/>
    </symbol>
    <symbol width="18" height="4" viewBox="0 0 18 4" fill="none" id="dots-hovered" xmlns="http://www.w3.org/2000/svg">
        <circle cx="2.66699" cy="2" r="2" fill="#519057"/>
        <circle cx="9.33398" cy="2" r="2" fill="#519057"/>
        <circle cx="16" cy="2" r="2" fill="#519057"/>
    </symbol>
    <symbol width="24" height="24" viewBox="0 0 24 24" fill="none" id="heart-big" xmlns="http://www.w3.org/2000/svg">
        <path d="M11.9997 20.8457C11.7155 20.8457 11.4405 20.8091 11.2113 20.7266C7.70967 19.5257 2.14551 15.2632 2.14551 8.96572C2.14551 5.75739 4.73967 3.15405 7.92967 3.15405C9.47884 3.15405 10.9272 3.75905 11.9997 4.84072C13.0722 3.75905 14.5205 3.15405 16.0697 3.15405C19.2597 3.15405 21.8538 5.76655 21.8538 8.96572C21.8538 15.2724 16.2897 19.5257 12.788 20.7266C12.5588 20.8091 12.2838 20.8457 11.9997 20.8457ZM7.92967 4.52905C5.50051 4.52905 3.52051 6.51822 3.52051 8.96572C3.52051 15.2266 9.54301 18.7099 11.6605 19.4341C11.8255 19.4891 12.183 19.4891 12.348 19.4341C14.4563 18.7099 20.488 15.2357 20.488 8.96572C20.488 6.51822 18.508 4.52905 16.0788 4.52905C14.6855 4.52905 13.393 5.17989 12.5588 6.30739C12.3022 6.65572 11.7155 6.65572 11.4588 6.30739C10.6063 5.17072 9.32301 4.52905 7.92967 4.52905Z"
              fill="#383838"/>
    </symbol>
    <symbol width="24" height="24" viewBox="0 0 24 24" fill="none" id="heart-big-filled"
            xmlns="http://www.w3.org/2000/svg">
        <path d="M11.9997 20.846C11.7155 20.846 11.4405 20.8093 11.2113 20.7268C7.70967 19.526 2.14551 15.2635 2.14551 8.96596C2.14551 5.75763 4.73967 3.1543 7.92967 3.1543C9.47884 3.1543 10.9272 3.7593 11.9997 4.84096C13.0722 3.7593 14.5205 3.1543 16.0697 3.1543C19.2597 3.1543 21.8538 5.7668 21.8538 8.96596C21.8538 15.2726 16.2897 19.526 12.788 20.7268C12.5588 20.8093 12.2838 20.846 11.9997 20.846ZM7.92967 4.5293C5.50051 4.5293 3.52051 6.51846 3.52051 8.96596C3.52051 15.2268 9.54301 18.7101 11.6605 19.4343C11.8255 19.4893 12.183 19.4893 12.348 19.4343C14.4563 18.7101 20.488 15.236 20.488 8.96596C20.488 6.51846 18.508 4.5293 16.0788 4.5293C14.6855 4.5293 13.393 5.18013 12.5588 6.30763C12.3022 6.65596 11.7155 6.65596 11.4588 6.30763C10.6063 5.17096 9.32301 4.5293 7.92967 4.5293Z"
              fill="#F3F3F3"/>
        <path d="M7.92967 4.5293C5.50051 4.5293 3.52051 6.51846 3.52051 8.96596C3.52051 15.2268 9.54301 18.7101 11.6605 19.4343C11.8255 19.4893 12.183 19.4893 12.348 19.4343C14.4563 18.7101 20.488 15.236 20.488 8.96596C20.488 6.51846 18.508 4.5293 16.0788 4.5293C14.6855 4.5293 13.393 5.18013 12.5588 6.30763C12.3022 6.65596 11.7155 6.65596 11.4588 6.30763C10.6063 5.17096 9.32301 4.5293 7.92967 4.5293Z"
              fill="#B6D5B9"/>
    </symbol>
    <symbol width="23" height="23" viewBox="0 0 23 23" fill="none" id="login" xmlns="http://www.w3.org/2000/svg">
        <path d="M8.5293 7.24498C8.82638 3.79498 10.5993 2.38623 14.4805 2.38623H14.6051C18.8889 2.38623 20.6043 4.10165 20.6043 8.3854V14.6337C20.6043 18.9175 18.8889 20.6329 14.6051 20.6329H14.4805C10.628 20.6329 8.85513 19.2433 8.53888 15.8508"
              stroke="#202B21" stroke-width="1.5" stroke-linecap="round"
              stroke-linejoin="round"/>
        <path d="M1.91699 11.5H14.2603" stroke="#202B21" stroke-width="1.5"
              stroke-linecap="round" stroke-linejoin="round"/>
        <path d="M12.123 8.28955L15.3335 11.5L12.123 14.7104" stroke="#202B21"
              stroke-width="1.5" stroke-linecap="round" stroke-linejoin="round"/>
    </symbol>
    <symbol width="24" height="24" viewBox="0 0 24 24" fill="none" id="profile" xmlns="http://www.w3.org/2000/svg">
        <path d="M12.1207 12.78C12.0507 12.77 11.9607 12.77 11.8807 12.78C10.1207 12.72 8.7207 11.28 8.7207 9.50998C8.7207 7.69998 10.1807 6.22998 12.0007 6.22998C13.8107 6.22998 15.2807 7.69998 15.2807 9.50998C15.2707 11.28 13.8807 12.72 12.1207 12.78Z"
              stroke="#202B21" stroke-width="1.5" stroke-linecap="round"
              stroke-linejoin="round"/>
        <path d="M18.7398 19.3801C16.9598 21.0101 14.5998 22.0001 11.9998 22.0001C9.39977 22.0001 7.03977 21.0101 5.25977 19.3801C5.35977 18.4401 5.95977 17.5201 7.02977 16.8001C9.76977 14.9801 14.2498 14.9801 16.9698 16.8001C18.0398 17.5201 18.6398 18.4401 18.7398 19.3801Z"
              stroke="#202B21" stroke-width="1.5" stroke-linecap="round"
              stroke-linejoin="round"/>
        <path d="M12 22C17.5228 22 22 17.5228 22 12C22 6.47715 17.5228 2 12 2C6.47715 2 2 6.47715 2 12C2 17.5228 6.47715 22 12 22Z"
              stroke="#202B21" stroke-width="1.5" stroke-linecap="round"
              stroke-linejoin="round"/>
    </symbol>
    <symbol width="24" height="24" viewBox="0 0 24 24" fill="none" id="cart" xmlns="http://www.w3.org/2000/svg">
        <path d="M6.32507 7.31686C6.16673 7.31686 6.00007 7.2502 5.8834 7.13353C5.64173 6.89186 5.64173 6.49186 5.8834 6.2502L8.9084 3.2252C9.15007 2.98353 9.55007 2.98353 9.79173 3.2252C10.0334 3.46686 10.0334 3.86686 9.79173 4.10853L6.76673 7.13353C6.64173 7.2502 6.4834 7.31686 6.32507 7.31686Z"
              fill="#202B21"/>
        <path d="M17.6753 7.31686C17.5169 7.31686 17.3586 7.25853 17.2336 7.13353L14.2086 4.10853C13.9669 3.86686 13.9669 3.46686 14.2086 3.2252C14.4503 2.98353 14.8503 2.98353 15.0919 3.2252L18.1169 6.2502C18.3586 6.49186 18.3586 6.89186 18.1169 7.13353C18.0003 7.2502 17.8336 7.31686 17.6753 7.31686Z"
              fill="#202B21"/>
        <path d="M18.842 10.8333C18.7837 10.8333 18.7253 10.8333 18.667 10.8333H18.4753H5.33366C4.75033 10.8417 4.08366 10.8417 3.60033 10.3583C3.21699 9.98333 3.04199 9.4 3.04199 8.54167C3.04199 6.25 4.71699 6.25 5.51699 6.25H18.4837C19.2837 6.25 20.9587 6.25 20.9587 8.54167C20.9587 9.40833 20.7837 9.98333 20.4003 10.3583C19.967 10.7917 19.3837 10.8333 18.842 10.8333ZM5.51699 9.58333H18.6753C19.0503 9.59167 19.4003 9.59167 19.517 9.475C19.5753 9.41667 19.7003 9.21667 19.7003 8.54167C19.7003 7.6 19.467 7.5 18.4753 7.5H5.51699C4.52533 7.5 4.29199 7.6 4.29199 8.54167C4.29199 9.21667 4.42533 9.41667 4.47533 9.475C4.59199 9.58333 4.95033 9.58333 5.31699 9.58333H5.51699Z"
              fill="#202B21"/>
        <path d="M10.1338 17.2498C9.79212 17.2498 9.50879 16.9665 9.50879 16.6248V13.6665C9.50879 13.3248 9.79212 13.0415 10.1338 13.0415C10.4755 13.0415 10.7588 13.3248 10.7588 13.6665V16.6248C10.7588 16.9748 10.4755 17.2498 10.1338 17.2498Z"
              fill="#202B21"/>
        <path d="M13.9668 17.2498C13.6251 17.2498 13.3418 16.9665 13.3418 16.6248V13.6665C13.3418 13.3248 13.6251 13.0415 13.9668 13.0415C14.3085 13.0415 14.5918 13.3248 14.5918 13.6665V16.6248C14.5918 16.9748 14.3085 17.2498 13.9668 17.2498Z"
              fill="#202B21"/>
        <path d="M14.4083 20.9581H9.38329C6.39996 20.9581 5.73329 19.1831 5.47496 17.6415L4.29996 10.4331C4.24162 10.0915 4.47496 9.7748 4.81662 9.71646C5.15829 9.65813 5.47496 9.89146 5.53329 10.2331L6.70829 17.4331C6.94996 18.9081 7.44996 19.7081 9.38329 19.7081H14.4083C16.55 19.7081 16.7916 18.9581 17.0666 17.5081L18.4666 10.2165C18.5333 9.87479 18.8583 9.6498 19.2 9.7248C19.5416 9.79146 19.7583 10.1165 19.6916 10.4581L18.2916 17.7498C17.9666 19.4415 17.425 20.9581 14.4083 20.9581Z"
              fill="#202B21"/>
    </symbol>
</svg>